<?xml version="1.0" encoding="UTF-8"?><svg xmlns="http://www.w3.org/2000/svg" xmlns:xlink="http://www.w3.org/1999/xlink" height="1000.0" preserveAspectRatio="xMidYMid meet" version="1.0" viewBox="0.0 -4.2 1000.0 1000.0" width="1000.0" zoomAndPan="magnify"><g id="change1_1"><path d="M841.32,317.39l-9.03-2.6l-2.6-9.03V-4.22h-2v309.98l-2.6,9.03l-9.03,2.6H639.11H352.94 c-120.49,0-218.52,98.03-218.52,218.52v98.99v42.71l-2.6,9.03l-9.03,2.6H0v2h122.79l9.03,2.6l2.6,9.03v292.91h2V702.87l2.6-9.03 l9.03-2.6h212.84h250.28c120.49,0,218.52-98.03,218.52-218.52V356.67v-25.65l2.6-9.03l9.03-2.6H1000v-2H841.32z M827.68,356.67 v116.05c0,119.39-97.13,216.52-216.52,216.52H360.89H148.05l-9.03-2.6l-2.6-9.03V634.9v-98.99c0-119.39,97.13-216.52,216.52-216.52 h286.18h176.94l9.03,2.6l2.6,9.03V356.67z"/></g></svg>